<svg width="29" height="29" viewBox="0 0 29 29" fill="none" xmlns="http://www.w3.org/2000/svg">
<rect width="29" height="29" fill="#FFBC11"/>
<path fill-rule="evenodd" clip-rule="evenodd" d="M14.5004 5.52393C11.075 5.52393 8.28613 8.20896 8.28613 11.5083C8.28613 16.7866 13.9677 23.0818 14.2091 23.3475C14.2833 23.4298 14.3885 23.4763 14.5004 23.4763C14.6204 23.4689 14.7175 23.4298 14.7917 23.3475C15.0331 23.0778 20.7147 16.674 20.7147 11.5083C20.7147 8.20896 17.9265 5.52393 14.5004 5.52393ZM14.5004 9.63779C15.787 9.63779 16.8308 10.6432 16.8308 11.8818C16.8308 12.306 16.7087 12.7025 16.4963 13.0409C16.0877 13.691 15.3467 14.1259 14.5004 14.1259C13.2139 14.1259 12.1701 13.1212 12.1701 11.8818C12.1701 10.6432 13.2139 9.63779 14.5004 9.63779Z" fill="#0D0D0D"/>
<rect width="29" height="29" fill="#FFBC11"/>
<path d="M22.9524 7.99951H6.38095C6.33105 7.99951 6.28183 8.00153 6.23396 8.00693C6.16316 8.01435 6.09505 8.02783 6.02897 8.04806L12.8097 14.8288C13.8319 15.851 15.4947 15.851 16.5169 14.8288L23.3044 8.04806C23.2511 8.03188 23.1965 8.01974 23.1405 8.01165C23.0798 8.00356 23.0171 7.99951 22.9524 7.99951Z" fill="#0D0D0D"/>
<path d="M10.2406 14.2138L5.04855 9.02848C5.0209 9.11682 5.00674 9.20919 5.00202 9.30494L5 9.38046V19.0471C5 19.1213 5.00539 19.1928 5.01686 19.2616C5.02427 19.3088 5.03439 19.3546 5.04855 19.3991L10.2406 14.2138Z" fill="#0D0D0D"/>
<path d="M24.3333 9.38046C24.3333 9.25639 24.3192 9.13907 24.2848 9.02848L19.086 14.2138L24.2848 19.3991C24.3192 19.2885 24.3333 19.1712 24.3333 19.0471V9.38046Z" fill="#0D0D0D"/>
<path d="M11.8292 15.8092L11.2143 15.1875L6.02897 20.3795C6.13956 20.4139 6.25688 20.4281 6.38095 20.4281H22.9524C23.0765 20.4281 23.1938 20.4139 23.3044 20.3795L18.1123 15.1875L17.4906 15.8092C16.7105 16.5893 15.6889 16.9757 14.6599 16.9757C14.0119 16.9757 13.3612 16.8206 12.7726 16.5077C12.4334 16.327 12.1145 16.0944 11.8292 15.8092Z" fill="#0D0D0D"/>
</svg>
