<svg width="29" height="29" viewBox="0 0 29 29" fill="none" xmlns="http://www.w3.org/2000/svg">
<rect width="29" height="29" fill="#FFBC11"/>
<path d="M19.3742 18.0016C19.2005 17.9854 19.0394 17.9656 18.9028 17.9417C18.4223 17.8566 17.8448 17.6918 17.438 17.5648C17.1193 17.466 16.7718 17.5535 16.5352 17.7895L14.5708 19.7425C13.2133 19.0272 12.1259 18.1945 11.2051 17.2683C10.279 16.3475 9.44624 15.2602 8.73093 13.9026L10.6839 11.9376C10.92 11.701 11.0074 11.3535 10.9086 11.0342C10.7828 10.6286 10.6168 10.0511 10.5324 9.57067C10.4539 9.12675 10.4221 8.42402 10.4078 7.86568C10.3964 7.38281 10.0028 7 9.51992 7H6.40948C6.02128 7 5.52344 7.29056 5.52344 7.88604C5.52344 11.9083 7.15414 15.7496 9.92371 18.5497C12.7238 21.3193 16.5651 22.95 20.5874 22.95C21.1829 22.95 21.4734 22.4522 21.4734 22.064V18.9535C21.4734 18.4707 21.0906 18.0771 20.6078 18.0657C20.2214 18.0567 19.7655 18.0381 19.3742 18.0016Z" fill="#0D0D0D"/>
<path d="M10.6075 7.86055C10.6219 8.42065 10.6536 9.10872 10.7291 9.53565L10.7292 9.53584C10.8113 10.0032 10.9741 10.5706 11.0994 10.9748L11.0995 10.9749C11.2204 11.3657 11.1132 11.79 10.8255 12.0785L10.8256 12.0784L10.6837 11.9375L10.8253 12.0787L8.9767 13.9387C9.66659 15.2176 10.4633 16.2488 11.346 17.1263L11.3468 17.1271C12.2243 18.0097 13.2554 18.8064 14.5343 19.4963L16.3938 17.6477L16.5347 17.789L16.394 17.6475L16.3939 17.6476C16.6824 17.3599 17.1067 17.2526 17.4971 17.3736L17.4974 17.3737C17.9021 17.5001 18.4698 17.6617 18.9373 17.7445C19.0667 17.7672 19.222 17.7864 19.3926 17.8022L19.3927 17.8022C19.7771 17.8382 20.2277 17.8566 20.6122 17.8655L20.6123 17.8655C21.2042 17.8795 21.6732 18.3623 21.6732 18.9533V22.0638C21.6732 22.5308 21.3223 23.1498 20.5872 23.1498C16.5111 23.1498 12.6196 21.4975 9.78287 18.6917L9.78132 18.6902C6.97555 15.8535 5.32324 11.9619 5.32324 7.88585C5.32324 7.1507 5.94228 6.7998 6.40929 6.7998H9.51973C10.1107 6.7998 10.5934 7.26874 10.6075 7.86055Z" fill="#0D0D0D"/>
</svg>
