<svg width="29" height="29" viewBox="0 0 29 29" fill="none" xmlns="http://www.w3.org/2000/svg">
<rect width="29" height="29" fill="#FFBC11"/>
<path fill-rule="evenodd" clip-rule="evenodd" d="M14.4286 5.21387C10.885 5.21387 8 7.99149 8 11.4046C8 16.865 13.8775 23.3772 14.1272 23.6521C14.204 23.7372 14.3128 23.7853 14.4286 23.7853C14.5527 23.7776 14.6532 23.7372 14.7299 23.6521C14.9796 23.373 20.8571 16.7485 20.8571 11.4046C20.8571 7.99149 17.9728 5.21387 14.4286 5.21387ZM14.4286 9.46959C15.7595 9.46959 16.8393 10.5096 16.8393 11.791C16.8393 12.2298 16.713 12.6399 16.4933 12.9901C16.0706 13.6625 15.304 14.1124 14.4286 14.1124C13.0977 14.1124 12.0179 13.0731 12.0179 11.791C12.0179 10.5096 13.0977 9.46959 14.4286 9.46959Z" fill="#0D0D0D"/>
</svg>
